<?xml version="1.0" encoding="utf-8"?>
<!-- Generator: Adobe Illustrator 18.1.1, SVG Export Plug-In . SVG Version: 6.00 Build 0)  -->
<svg version="1.1" id="Layer_1" xmlns="http://www.w3.org/2000/svg" xmlns:xlink="http://www.w3.org/1999/xlink" x="0px" y="0px"
	 viewBox="0 0 200 39.8" enable-background="new 0 0 200 39.8" xml:space="preserve">
<g>
	<path fill="#3EC4E4" d="M18.8,39.8c-0.4-0.1-0.7-0.1-1.1-0.3c-2.3-0.9-3.7-2.6-4.1-5.1c-0.1-0.4-0.1-0.8,0-1.3
		c0-0.3,0.1-0.4,0.4-0.4c0.7,0,1.3-0.1,2,0c0,0,0,0,0.1,0c0.5,0,0.8,0.3,0.7,0.8c-0.1,0.8,0.2,1.5,0.7,2.1c0.6,0.7,1.3,1,2.2,1
		c0.6,0,1.2,0,1.8,0c3.6,0,7.2,0,10.8,0c1.9,0,3.8,0,5.8,0c1.8,0,3.1-1.3,3.1-3.1c0-2.4,0-4.7,0-7.1c0-3.4,0-6.8,0-10.2
		c0-0.8,0-1.6,0-2.4c0-0.9-0.4-1.4-1.3-1.5c-1.3-0.1-2.7-0.1-4-0.1c-0.7,0-1.4,0-2.1,0c-1.2,0-1.8-0.6-1.8-1.8c0-1.5,0-2.9,0-4.4
		c0-0.5,0-0.9,0-1.4c-0.1-0.4-0.1-0.8-0.4-1.1c-0.2-0.3-0.5-0.4-0.8-0.5c-0.1,0-0.2,0-0.3,0c-3,0-6,0-8.9,0c-0.7,0-1.5,0-2.2,0
		C18,3.4,17,4.3,16.8,5.7c-0.1,0.5-0.1,0.9-0.1,1.4c0,1.6,0,3.3,0,4.9c0,0.4,0,0.9,0,1.3c0,0.1,0,0.2,0,0.3c0,0.3-0.2,0.4-0.4,0.4
		c-0.6,0-1.2,0.1-1.9,0c-0.5-0.1-0.7-0.3-0.8-0.8c0-0.3,0-0.5,0-0.8c0-2.2,0-4.4,0-6.5c0-2.8,2.1-5.3,4.8-5.8c0.2,0,0.5,0,0.7-0.1
		c1.5,0,3,0,4.5,0c0,0.1,0.1,0,0.1,0c1.5,0,3,0,4.5,0c0,0,0.1,0,0.1,0c1.2,0,2.5,0,3.7,0c0.3,0.1,0.5,0.1,0.8,0.2
		c0.7,0.2,1.3,0.5,1.8,1c1.2,1.1,2.4,2.2,3.6,3.4c1.7,1.7,3.3,3.3,4.9,5.1c0.8,0.9,1.2,1.9,1.1,3c0,2.1,0,4.2,0,6.2
		c0,4.7,0,9.4,0,14.1c0,0.8,0,1.5-0.2,2.3c-0.6,2.3-2.6,4.1-4.9,4.5c0,0-0.1,0-0.1,0C32.3,39.8,25.5,39.8,18.8,39.8z"/>
	<path fill="#3EC4E4" d="M102.9,39.8c0-0.1,0-0.2,0-0.2c0-6.4,0-12.7,0-19.1c0-0.2,0-0.3,0.3-0.3c1.1,0,2.3,0,3.4,0
		c0.2,0,0.2,0.1,0.2,0.2c0,0.5,0,1,0,1.6c0.1,0,0.1-0.1,0.2-0.1c1.1-1,2.3-1.7,3.8-1.9c3.7-0.5,6.5,1.6,7.5,4.6
		c0.8,2.4,0.6,4.8-0.8,7c-1,1.6-2.4,2.7-4.3,3c-2.4,0.4-4.4-0.2-6.2-1.9c-0.1-0.1-0.1-0.1-0.2-0.2c0,0,0,0,0,0c0,0.1,0,0.2,0,0.2
		c0,2.3,0,4.5,0,6.8c0,0.1,0,0.2,0,0.2C105.5,39.8,104.2,39.8,102.9,39.8z M114.6,27.2c0-0.6-0.1-1.4-0.4-2.1c-1.3-3.1-5-3.2-6.7-1
		c-0.6,0.9-0.9,1.8-1,2.9c0,1.2,0.2,2.4,0.9,3.4c1.5,2.2,4.7,2.2,6.2,0.2C114.3,29.7,114.6,28.6,114.6,27.2z"/>
	<path fill="#3EC4E4" d="M1,29.4c0.1-0.2,0.1-0.5,0.3-0.7c0.3-0.5,0.8-0.7,1.4-0.8c0.1,0,0.2,0,0.4,0c10.9,0,21.8,0,32.7,0
		c0.6,0,1.2,0.2,1.6,0.7c0.5,0.6,0.5,1.2,0.3,1.9c-0.3,0.7-0.8,1-1.5,1.1c-0.1,0-0.2,0-0.3,0c-10.9,0-21.9,0-32.8,0
		c-0.8,0-1.4-0.2-1.8-0.9c-0.1-0.2-0.1-0.4-0.2-0.5C1,29.8,1,29.6,1,29.4z"/>
	<path fill="#FFFFFF" d="M28.4,0c0,0.1-0.1,0-0.1,0c-1.5,0-3,0-4.5,0c0,0-0.1,0-0.1,0C25.2,0,26.8,0,28.4,0z"/>
	<path fill="#3EC4E4" d="M46.9,24.5c0-3.2,0-6.4,0-9.6c0-0.2,0-0.3,0.3-0.3c2.9,0,5.8,0,8.6,0c3,0,5.5,1.1,7.5,3.4
		c1.2,1.4,1.9,3,2.1,4.8c0.3,1.8,0.2,3.7-0.5,5.4c-1.2,3.2-3.6,5.2-6.9,5.9c-0.8,0.2-1.6,0.2-2.3,0.2c-2.9,0-5.7,0-8.6,0
		c-0.2,0-0.2,0-0.2-0.2C46.9,30.9,46.9,27.7,46.9,24.5z M51,24.5c0,2.1,0,4.2,0,6.3c0,0.1-0.1,0.2,0.1,0.2c1.5,0,3,0.1,4.5-0.1
		c1.8-0.1,3.2-0.9,4.4-2.3c0.8-1,1.2-2.1,1.3-3.3c0.1-1.3,0-2.6-0.5-3.7c-1.1-2.2-3-3.4-5.4-3.6c-1.4-0.1-2.8,0-4.1,0
		C51,18,51,18,51,18.2C51,20.3,51,22.4,51,24.5z"/>
	<path fill="#3EC4E4" d="M162,22.1c0.3-0.2,0.5-0.5,0.7-0.7c1.4-1.2,3-1.6,4.8-1.5c1.8,0.2,3.2,1.1,4.1,2.7c0.5,0.9,0.6,1.8,0.6,2.7
		c0,2.9,0,5.8,0,8.7c0,0.2,0,0.2-0.2,0.2c-1.1,0-2.3,0-3.4,0c-0.2,0-0.2-0.1-0.2-0.2c0-2.8,0-5.7,0-8.5c0-0.9-0.3-1.8-1-2.4
		c-1.1-0.8-2.2-0.8-3.4-0.2c-1.3,0.7-2,1.8-2,3.3c0,2.6,0,5.2,0,7.8c0,0.2,0,0.3-0.2,0.3c-1.1,0-2.3,0-3.4,0c-0.2,0-0.2-0.1-0.2-0.2
		c0-6.4,0-12.9,0-19.3c0-0.2,0-0.2,0.2-0.2c1.1,0,2.3,0,3.4,0c0.2,0,0.2,0,0.2,0.2c0,2.3,0,4.7,0,7C162,21.9,162,22,162,22.1z"/>
	<path fill="#3EC4E4" d="M133.3,22.1c0-0.6,0-1.1,0-1.6c0-0.1,0-0.2,0.2-0.2c1.2,0,2.3,0,3.5,0c0.1,0,0.2,0,0.2,0.2
		c0,4.6,0,9.1,0,13.7c0,0.1,0,0.2-0.2,0.2c-1.2,0-2.3,0-3.5,0c-0.1,0-0.2,0-0.2-0.2c0-0.5,0-1.1,0-1.7c-0.1,0.1-0.1,0.1-0.2,0.2
		c-1.1,1.1-2.4,1.8-4,2c-4,0.5-6.7-2.1-7.4-5.1c-0.5-2-0.4-4,0.5-5.8c0.9-1.8,2.3-3.1,4.4-3.6c2.5-0.5,4.7,0.1,6.5,1.8
		C133.2,22,133.2,22.1,133.3,22.1z M133.5,27.5c0-1-0.1-1.8-0.4-2.4c-0.6-1.4-1.6-2.3-3.2-2.4c-1.7-0.2-3,0.5-3.8,2
		c-0.9,1.8-1,3.6,0,5.4c1.4,2.6,5.2,2.7,6.7,0.1C133.4,29.3,133.6,28.3,133.5,27.5z"/>
	<path fill="#3EC4E4" d="M83.4,31.8c-0.4,0.5-0.9,1-1.5,1.4c-1.2,0.8-2.6,1.3-4.1,1.5c-1.7,0.2-3.4,0-5-0.7
		c-2.1-0.9-3.6-2.3-4.2-4.5c-1.2-4.5,1.5-8.3,5.4-9.2c1.9-0.5,3.9-0.4,5.7,0.5c2.4,1.1,3.7,3,4.1,5.6c0.1,0.7,0.1,1.4,0,2.2
		c0,0.1-0.1,0.1-0.2,0.1c-0.9,0-1.7,0-2.6,0c-2.8,0-5.6,0-8.3,0c-0.2,0-0.3,0-0.2,0.2c0.4,2,1.9,3.2,3.9,3.3
		c1.5,0.1,2.7-0.5,3.7-1.6c0.1-0.1,0.2-0.2,0.4-0.1c0.9,0.4,1.8,0.8,2.7,1.2C83.2,31.7,83.3,31.7,83.4,31.8z M76.2,26.1
		c1.2,0,2.4,0,3.6,0c0.1,0,0.2,0,0.2-0.2c-0.1-0.7-0.4-1.4-0.8-2c-1.3-1.8-3.7-1.7-4.9-0.7c-0.8,0.7-1.3,1.6-1.6,2.6
		c0,0.2,0,0.2,0.2,0.2C73.9,26.1,75.1,26.1,76.2,26.1z"/>
	<path fill="#3EC4E4" d="M190.5,31.8c-0.4,0.6-0.9,1-1.5,1.4c-1.2,0.8-2.6,1.3-4.1,1.5c-1.7,0.2-3.4,0-5-0.7
		c-2.1-0.9-3.6-2.3-4.2-4.5c-1.2-4.5,1.4-8.3,5.4-9.2c1.9-0.5,3.9-0.4,5.7,0.5c2.4,1.1,3.7,3,4.1,5.6c0.1,0.7,0.1,1.4,0,2.2
		c0,0.1-0.1,0.1-0.2,0.1c-0.7,0-1.5,0-2.2,0c-2.9,0-5.8,0-8.7,0c-0.2,0-0.2,0-0.2,0.3c0.4,1.9,1.9,3.2,3.8,3.3
		c1.5,0.1,2.7-0.4,3.7-1.6c0.1-0.1,0.2-0.1,0.4-0.1C188.6,30.9,189.5,31.3,190.5,31.8z M183.3,26.1c1.2,0,2.3,0,3.5,0
		c0.2,0,0.2,0,0.2-0.2c-0.2-0.7-0.4-1.3-0.8-1.9c-1.3-1.8-3.7-1.7-5-0.7c-0.8,0.7-1.3,1.6-1.5,2.6c0,0.2,0,0.2,0.2,0.2
		C181,26.1,182.2,26.1,183.3,26.1z"/>
	<path fill="#3EC4E4" d="M93.4,34.7c-2.3,0-4.4-0.6-6.3-1.9c-0.4-0.3-0.4-0.3-0.1-0.7c0.5-0.6,1-1.2,1.5-1.9c0.1-0.1,0.2-0.2,0.3,0
		c0.9,0.7,2,1.2,3.2,1.4c0.9,0.2,1.7,0.2,2.6-0.1c0.1,0,0.3-0.1,0.4-0.2c0.7-0.4,0.7-1.3,0.1-1.8c-0.3-0.3-0.7-0.4-1.1-0.5
		c-0.8-0.2-1.6-0.4-2.4-0.7c-0.8-0.2-1.6-0.6-2.3-1c-2.2-1.5-2.1-4.6-0.2-6c1.1-0.8,2.2-1.2,3.5-1.3c2.5-0.2,4.7,0.5,6.7,2
		c0.1,0.1,0.1,0.2,0,0.3c-0.5,0.7-1.1,1.4-1.6,2.1c-0.1,0.1-0.2,0.1-0.3,0c-1-0.6-2-1.1-3.1-1.4c-0.7-0.1-1.4-0.2-2.1,0
		c-0.3,0.1-0.6,0.3-0.7,0.6c-0.1,0.4,0,0.7,0.3,1c0.4,0.4,0.9,0.5,1.4,0.7c0.9,0.3,1.7,0.4,2.6,0.7c0.8,0.3,1.5,0.6,2.1,1.1
		c1.9,1.5,2,4.7-0.2,6.3c-0.9,0.6-1.9,1-2.9,1.1C94.4,34.6,93.9,34.7,93.4,34.7z"/>
	<path fill="#3EC4E4" d="M155.1,31.3c-1.2,1.7-2.8,2.8-4.8,3.2c-1.7,0.3-3.5,0.3-5.1-0.4c-2.3-0.9-4-2.6-4.5-5
		c-1.1-4.8,2.1-8.3,5.8-9c1.9-0.4,3.7-0.2,5.5,0.5c1.2,0.6,2.2,1.4,3,2.5c0.1,0.1,0.1,0.1-0.1,0.2c-1,0.5-2.1,1-3.1,1.5
		c-0.1,0.1-0.2,0-0.2-0.1c-0.3-0.5-0.6-1-1.1-1.4c-1.2-1.1-3.8-1.2-5.1,0.8c-0.8,1.1-1,2.4-0.9,3.7c0.1,1,0.3,1.9,0.9,2.7
		c1.3,2,3.9,1.8,5.1,0.8c0.5-0.4,0.8-0.9,1.1-1.4c0.1-0.1,0.1-0.2,0.3-0.1c1,0.5,2,1,3,1.4C155,31.3,155,31.3,155.1,31.3z"/>
	<path fill="#3EC4E4" d="M198.6,27.3c0,2.3,0,4.5,0,6.8c0,0.2,0,0.2-0.2,0.2c-1.1,0-2.3,0-3.4,0c-0.2,0-0.2-0.1-0.2-0.2
		c0-4.5,0-9.1,0-13.6c0-0.2,0-0.2,0.2-0.2c1.1,0,2.3,0,3.4,0c0.2,0,0.2,0.1,0.2,0.2C198.6,22.8,198.6,25.1,198.6,27.3z"/>
	<path fill="#3EC4E4" d="M196.6,19.1c-1.3,0-2.3-1-2.3-2.3c0-1.3,1-2.3,2.3-2.3c1.2,0,2.3,1.1,2.3,2.3
		C198.9,18.1,197.9,19.1,196.6,19.1z"/>
	<path fill="#3EC4E4" d="M20.2,25.3c-4.3,0-8.6,0-12.9,0c-0.3,0-0.6,0-0.9-0.2c-0.8-0.3-1.2-1.1-1.1-2c0.1-0.8,0.8-1.4,1.6-1.5
		c0.3,0,0.5,0,0.8,0c8.4,0,16.9,0,25.3,0c0.7,0,1.3,0.2,1.8,0.8c0.8,1.1,0.2,2.6-1.1,2.8c-0.2,0-0.3,0-0.5,0
		C28.8,25.3,24.5,25.3,20.2,25.3z"/>
	<path fill="#3EC4E4" d="M23.4,19c-4.1,0-8.1,0-12.2,0c-0.4,0-0.8,0-1.2-0.2C9.3,18.5,9,17.9,9,17c0.1-0.7,0.6-1.3,1.3-1.5
		c0.3-0.1,0.6-0.1,1-0.1c8.1,0,16.2,0,24.3,0c0.3,0,0.7,0,1,0.1c0.9,0.3,1.3,0.9,1.3,1.8c0,0.8-0.5,1.4-1.3,1.6
		C36.2,19,35.9,19,35.6,19C31.6,19,27.5,19,23.4,19z"/>
</g>
</svg>
